<?xml version="1.0" encoding="UTF-8" standalone="no"?>
<!-- Generator: Adobe Illustrator 18.1.1, SVG Export Plug-In . SVG Version: 6.00 Build 0)  -->

<svg
   version="1.1"
   id="Capa_1"
   x="0px"
   y="0px"
   viewBox="0 0 44.75 44.75"
   style="enable-background:new 0 0 44.75 44.75;"
   xml:space="preserve"
   sodipodi:docname="print.svg"
   inkscape:version="1.2.1 (9c6d41e410, 2022-07-14)"
   xmlns:inkscape="http://www.inkscape.org/namespaces/inkscape"
   xmlns:sodipodi="http://sodipodi.sourceforge.net/DTD/sodipodi-0.dtd"
   xmlns="http://www.w3.org/2000/svg"
   xmlns:svg="http://www.w3.org/2000/svg"><defs
   id="defs810" /><sodipodi:namedview
   id="namedview808"
   pagecolor="#505050"
   bordercolor="#eeeeee"
   borderopacity="1"
   inkscape:showpageshadow="0"
   inkscape:pageopacity="0"
   inkscape:pagecheckerboard="0"
   inkscape:deskcolor="#505050"
   showgrid="false"
   inkscape:zoom="18.03352"
   inkscape:cx="22.375"
   inkscape:cy="22.375"
   inkscape:window-width="1920"
   inkscape:window-height="1023"
   inkscape:window-x="1920"
   inkscape:window-y="29"
   inkscape:window-maximized="1"
   inkscape:current-layer="Capa_1" />
<g
   id="g775"
   style="fill:#ffffff">
	<g
   id="g773"
   style="fill:#ffffff">
		<path
   style="fill:#ffffff"
   d="M0,33.344c0,3.313,2.686,6,6,6h2.57c0.036-0.244,0.082-0.489,0.149-0.733l0.689-2.521    c0.819-2.996,3.778-5.256,6.884-5.256h12.166c3.106,0,6.065,2.259,6.883,5.255l0.688,2.522c0.066,0.244,0.113,0.489,0.149,0.733    h2.571c3.314,0,6-2.687,6-6v-9.667H0V33.344z M38.5,28.177c1.381,0,2.5,1.119,2.5,2.5c0,1.381-1.119,2.5-2.5,2.5    s-2.5-1.119-2.5-2.5C36,29.296,37.119,28.177,38.5,28.177z"
   id="path765" />
		<path
   style="fill:#ffffff"
   d="M38.75,14.677H6c-3.314,0-6,2.686-6,6h44.75C44.75,17.364,42.064,14.677,38.75,14.677z"
   id="path767" />
		<path
   style="fill:#ffffff"
   d="M28.458,33.923H16.293c-1.707,0-3.454,1.334-3.904,2.979L11.7,39.425    c-0.45,1.646,0.569,2.98,2.275,2.98h16.8c1.707,0,2.726-1.334,2.275-2.98l-0.689-2.523C31.912,35.257,30.164,33.923,28.458,33.923    z"
   id="path769" />
		<path
   style="fill:#ffffff"
   d="M34.25,4.344c0-1.105-0.895-2-2-2H12.5c-1.105,0-2,0.895-2,2v7.833h23.75V4.344z"
   id="path771" />
	</g>
</g>
<g
   id="g777">
</g>
<g
   id="g779">
</g>
<g
   id="g781">
</g>
<g
   id="g783">
</g>
<g
   id="g785">
</g>
<g
   id="g787">
</g>
<g
   id="g789">
</g>
<g
   id="g791">
</g>
<g
   id="g793">
</g>
<g
   id="g795">
</g>
<g
   id="g797">
</g>
<g
   id="g799">
</g>
<g
   id="g801">
</g>
<g
   id="g803">
</g>
<g
   id="g805">
</g>
</svg>
