<?xml version="1.0" encoding="UTF-8" standalone="no"?>
<svg
   width="24px"
   height="24px"
   viewBox="0 0 24 24"
   fill="none"
   version="1.1"
   id="svg3294"
   sodipodi:docname="trash.svg"
   inkscape:version="1.2.1 (9c6d41e410, 2022-07-14)"
   xmlns:inkscape="http://www.inkscape.org/namespaces/inkscape"
   xmlns:sodipodi="http://sodipodi.sourceforge.net/DTD/sodipodi-0.dtd"
   xmlns="http://www.w3.org/2000/svg"
   xmlns:svg="http://www.w3.org/2000/svg">
  <defs
     id="defs3298" />
  <sodipodi:namedview
     id="namedview3296"
     pagecolor="#505050"
     bordercolor="#eeeeee"
     borderopacity="1"
     inkscape:showpageshadow="0"
     inkscape:pageopacity="0"
     inkscape:pagecheckerboard="0"
     inkscape:deskcolor="#505050"
     showgrid="false"
     inkscape:zoom="36"
     inkscape:cx="12.013889"
     inkscape:cy="12.013889"
     inkscape:window-width="1920"
     inkscape:window-height="1023"
     inkscape:window-x="1920"
     inkscape:window-y="29"
     inkscape:window-maximized="1"
     inkscape:current-layer="svg3294" />
  <path
     d="M5.12817 8.15391C5.12817 10.4103 5.12817 13.5898 5.12817 15.1283C5.23074 16.4616 5.3333 18.2052 5.43587 19.436C5.53843 20.8719 6.7692 22.0001 8.2051 22.0001H15.7948C17.2307 22.0001 18.4615 20.8719 18.5641 19.436C18.6666 18.2052 18.7692 16.4616 18.8718 15.1283C18.9743 13.5898 18.8718 10.4103 18.8718 8.15391H5.12817Z"
     fill="#030D45"
     id="path3290"
     style="fill:#ffffff" />
  <path
     d="M19.1795 5.07698H16.6154L15.7949 3.53852C15.2821 2.61545 14.359 2.00006 13.3333 2.00006H10.8718C9.84615 2.00006 8.82051 2.61545 8.41026 3.53852L7.38462 5.07698H4.82051C4.41026 5.07698 4 5.48724 4 5.8975C4 6.30775 4.41026 6.71801 4.82051 6.71801H19.1795C19.5897 6.71801 20 6.41032 20 5.8975C20 5.38468 19.5897 5.07698 19.1795 5.07698ZM9.12821 5.07698L9.64103 4.25647C9.84615 3.84621 10.2564 3.53852 10.7692 3.53852H13.2308C13.7436 3.53852 14.1538 3.74365 14.359 4.25647L14.8718 5.07698H9.12821Z"
     fill="#030D45"
     id="path3292"
     style="fill:#ffffff" />
</svg>
