<?xml version="1.0" encoding="UTF-8" standalone="no"?>
<!-- Generator: Adobe Illustrator 19.0.0, SVG Export Plug-In . SVG Version: 6.00 Build 0)  -->

<svg
   version="1.1"
   id="Layer_1"
   x="0px"
   y="0px"
   viewBox="0 0 512 512"
   style="enable-background:new 0 0 512 512;"
   xml:space="preserve"
   sodipodi:docname="ch.svg"
   inkscape:version="1.2.1 (9c6d41e410, 2022-07-14)"
   xmlns:inkscape="http://www.inkscape.org/namespaces/inkscape"
   xmlns:sodipodi="http://sodipodi.sourceforge.net/DTD/sodipodi-0.dtd"
   xmlns="http://www.w3.org/2000/svg"
   xmlns:svg="http://www.w3.org/2000/svg"><defs
   id="defs362" /><sodipodi:namedview
   id="namedview360"
   pagecolor="#505050"
   bordercolor="#eeeeee"
   borderopacity="1"
   inkscape:showpageshadow="0"
   inkscape:pageopacity="0"
   inkscape:pagecheckerboard="0"
   inkscape:deskcolor="#505050"
   showgrid="false"
   inkscape:zoom="0.59662135"
   inkscape:cx="262.31043"
   inkscape:cy="176.82907"
   inkscape:window-width="1920"
   inkscape:window-height="1023"
   inkscape:window-x="1920"
   inkscape:window-y="29"
   inkscape:window-maximized="1"
   inkscape:current-layer="Layer_1" />
<path
   style="fill:#E0E0E2;"
   d="M442.166,512c12.853,0,23.273-10.42,23.273-23.273V179.02c-0.321,12.573-10.591,22.672-23.242,22.672  c-0.012,0-0.022,0-0.031,0h-23.273H287.015c-12.853,0-23.273-10.42-23.273-23.273V46.545V23.273c0-9.413,5.669-17.898,14.367-21.501  c2.991-1.238,6.136-1.801,9.249-1.753C287.243,0.016,287.13,0,287.015,0H69.803C56.95,0,46.53,10.42,46.53,23.273v465.455  C46.53,501.58,56.95,512,69.803,512H442.166z"
   id="path325" />
<path
   style="fill:#C6C5CA;"
   d="M263.742,23.273v23.273V178.42c0,12.853,10.42,23.273,23.273,23.273h131.879h23.273  c0.009,0,0.019,0,0.031,0c12.651,0,22.921-10.1,23.242-22.672c0.006-0.202,0.031-0.397,0.031-0.6c0-4.822-1.488-9.286-4-13.002  c-0.003-0.005-0.006-0.009-0.009-0.014c-0.396-0.586-0.821-1.153-1.269-1.699c-0.036-0.045-0.073-0.092-0.109-0.137  c-0.424-0.512-0.873-1.001-1.339-1.474c-0.073-0.073-0.144-0.147-0.219-0.22c-0.203-0.2-0.391-0.419-0.604-0.613L303.472,6.816  c-0.483-0.484-0.99-0.936-1.508-1.37c-0.155-0.13-0.315-0.253-0.473-0.379c-0.379-0.299-0.763-0.59-1.161-0.867  c-0.189-0.132-0.379-0.264-0.569-0.389c-0.416-0.272-0.839-0.526-1.272-0.773c-0.163-0.095-0.326-0.197-0.493-0.285  c-0.563-0.303-1.14-0.579-1.73-0.835c-0.233-0.101-0.472-0.188-0.706-0.281c-0.394-0.155-0.791-0.303-1.195-0.436  c-0.267-0.088-0.537-0.175-0.807-0.254c-0.453-0.132-0.912-0.248-1.376-0.354c-0.197-0.045-0.393-0.101-0.591-0.14  c-0.649-0.13-1.309-0.228-1.977-0.301c-0.2-0.023-0.402-0.036-0.602-0.053c-0.546-0.047-1.098-0.076-1.654-0.084  c-3.112-0.047-6.257,0.515-9.249,1.753C269.413,5.374,263.742,13.86,263.742,23.273z"
   id="path327" />
<g
   id="g329">
</g>
<g
   id="g331">
</g>
<g
   id="g333">
</g>
<g
   id="g335">
</g>
<g
   id="g337">
</g>
<g
   id="g339">
</g>
<g
   id="g341">
</g>
<g
   id="g343">
</g>
<g
   id="g345">
</g>
<g
   id="g347">
</g>
<g
   id="g349">
</g>
<g
   id="g351">
</g>
<g
   id="g353">
</g>
<g
   id="g355">
</g>
<g
   id="g357">
</g>
<path
   d="m 246.97936,386.33511 -11.29,-22.23 c -0.16,-0.32 -0.46,-0.55 -0.81,-0.63 -0.35,-0.08 -0.71,0.01 -0.99,0.23 -6.32,5.01 -17.18,8.79 -25.27,8.79 -15.63,0 -26.55,-10.58 -26.55,-25.73 0,-15.15 10.92,-25.73 26.55,-25.73 8.46,0 17.14,2.72 22.64,7.11 0.27,0.22 0.64,0.3 0.98,0.24 0.34,-0.07 0.64,-0.29 0.81,-0.6 l 12.52,-22.81 c 0.28,-0.51 0.15,-1.15 -0.31,-1.51 -9.47,-7.5 -21.49,-11.15 -36.75,-11.15 -32.5,0 -56.08,22.91 -56.08,54.46 0,31.56 23.58,54.46 56.08,54.46 14.87,0 27.72,-4.52 38.18,-13.45 0.42,-0.36 0.54,-0.96 0.29,-1.45 z"
   fill="#40c0e7"
   id="path13556"
   style="fill:#00b3b3;fill-opacity:1" /><path
   d="m 354.56537,293.92333 h -24.64 c -1.28,0 -2.33,1.04 -2.33,2.33 v 36.27 h -37.01 v -36.26 c 0,-1.29 -1.04,-2.33 -2.34,-2.33 h -24.63 a 2.34,2.34 0 0 0 -2.34,2.33 v 99.96 c 0,1.29 1.05,2.33 2.34,2.33 h 24.63 a 2.34,2.34 0 0 0 2.34,-2.33 v -42.49 h 37.02 v 42.48 c 0,1.29 1.05,2.33 2.33,2.33 h 24.64 c 1.29,0 2.33,-1.05 2.33,-2.33 v -99.95 a 2.35,2.35 0 0 0 -2.34,-2.34 z"
   fill="#40c0e7"
   id="path14291"
   style="fill:#00b3b3;fill-opacity:1" /></svg>
