<?xml version="1.0" encoding="UTF-8" standalone="no"?>
<!-- Generator: Adobe Illustrator 19.0.0, SVG Export Plug-In . SVG Version: 6.00 Build 0)  -->

<svg
   version="1.1"
   id="Layer_1"
   x="0px"
   y="0px"
   viewBox="0 0 512 512"
   style="enable-background:new 0 0 512 512;"
   xml:space="preserve"
   sodipodi:docname="zsv.svg"
   inkscape:version="1.2.1 (9c6d41e410, 2022-07-14)"
   xmlns:inkscape="http://www.inkscape.org/namespaces/inkscape"
   xmlns:sodipodi="http://sodipodi.sourceforge.net/DTD/sodipodi-0.dtd"
   xmlns="http://www.w3.org/2000/svg"
   xmlns:svg="http://www.w3.org/2000/svg"><defs
   id="defs362" /><sodipodi:namedview
   id="namedview360"
   pagecolor="#505050"
   bordercolor="#eeeeee"
   borderopacity="1"
   inkscape:showpageshadow="0"
   inkscape:pageopacity="0"
   inkscape:pagecheckerboard="0"
   inkscape:deskcolor="#505050"
   showgrid="false"
   inkscape:zoom="0.59662135"
   inkscape:cx="262.31043"
   inkscape:cy="176.82907"
   inkscape:window-width="1920"
   inkscape:window-height="1023"
   inkscape:window-x="1920"
   inkscape:window-y="29"
   inkscape:window-maximized="1"
   inkscape:current-layer="Layer_1" />
<path
   style="fill:#E0E0E2;"
   d="M442.166,512c12.853,0,23.273-10.42,23.273-23.273V179.02c-0.321,12.573-10.591,22.672-23.242,22.672  c-0.012,0-0.022,0-0.031,0h-23.273H287.015c-12.853,0-23.273-10.42-23.273-23.273V46.545V23.273c0-9.413,5.669-17.898,14.367-21.501  c2.991-1.238,6.136-1.801,9.249-1.753C287.243,0.016,287.13,0,287.015,0H69.803C56.95,0,46.53,10.42,46.53,23.273v465.455  C46.53,501.58,56.95,512,69.803,512H442.166z"
   id="path325" />
<path
   style="fill:#C6C5CA;"
   d="M263.742,23.273v23.273V178.42c0,12.853,10.42,23.273,23.273,23.273h131.879h23.273  c0.009,0,0.019,0,0.031,0c12.651,0,22.921-10.1,23.242-22.672c0.006-0.202,0.031-0.397,0.031-0.6c0-4.822-1.488-9.286-4-13.002  c-0.003-0.005-0.006-0.009-0.009-0.014c-0.396-0.586-0.821-1.153-1.269-1.699c-0.036-0.045-0.073-0.092-0.109-0.137  c-0.424-0.512-0.873-1.001-1.339-1.474c-0.073-0.073-0.144-0.147-0.219-0.22c-0.203-0.2-0.391-0.419-0.604-0.613L303.472,6.816  c-0.483-0.484-0.99-0.936-1.508-1.37c-0.155-0.13-0.315-0.253-0.473-0.379c-0.379-0.299-0.763-0.59-1.161-0.867  c-0.189-0.132-0.379-0.264-0.569-0.389c-0.416-0.272-0.839-0.526-1.272-0.773c-0.163-0.095-0.326-0.197-0.493-0.285  c-0.563-0.303-1.14-0.579-1.73-0.835c-0.233-0.101-0.472-0.188-0.706-0.281c-0.394-0.155-0.791-0.303-1.195-0.436  c-0.267-0.088-0.537-0.175-0.807-0.254c-0.453-0.132-0.912-0.248-1.376-0.354c-0.197-0.045-0.393-0.101-0.591-0.14  c-0.649-0.13-1.309-0.228-1.977-0.301c-0.2-0.023-0.402-0.036-0.602-0.053c-0.546-0.047-1.098-0.076-1.654-0.084  c-3.112-0.047-6.257,0.515-9.249,1.753C269.413,5.374,263.742,13.86,263.742,23.273z"
   id="path327" />
<g
   id="g329">
</g>
<g
   id="g331">
</g>
<g
   id="g333">
</g>
<g
   id="g335">
</g>
<g
   id="g337">
</g>
<g
   id="g339">
</g>
<g
   id="g341">
</g>
<g
   id="g343">
</g>
<g
   id="g345">
</g>
<g
   id="g347">
</g>
<g
   id="g349">
</g>
<g
   id="g351">
</g>
<g
   id="g353">
</g>
<g
   id="g355">
</g>
<g
   id="g357">
</g>
<path
   d="m 209.46512,365.45902 h -46.31 l 48.33,-79.77 c 0.44,-0.73 0.46,-1.64 0.04,-2.39 -0.42,-0.74 -1.21,-1.2 -2.06,-1.2 h -27.85 c -0.25,0 -0.49,0.05 -0.71,0.13 h -61.26 c -1.24,0 -2.24,1 -2.24,2.24 v 16.72 c 0,1.24 1.01,2.24 2.24,2.24 h 47.43 l -49.44,79.75 c -0.45,0.73 -0.47,1.65 -0.06,2.4 0.42,0.75 1.21,1.21 2.07,1.21 h 29.25 c 0.25,0 0.49,-0.05 0.72,-0.12 h 59.84 c 1.23,0 2.24,-1 2.24,-2.24 v -16.72 c 0.01,-1.25 -1,-2.25 -2.23,-2.25 z"
   fill="#40c0e7"
   id="path17406"
   style="fill:#cc9900;fill-opacity:1" /><path
   d="m 289.26945,335.95211 c -8.08,-7.63 -21.82,-13.99 -30.91,-18.2 -1.54,-0.71 -2.93,-1.35 -4.11,-1.92 -3.43,-1.65 -8.12,-6.22 -6.1,-11.47 1.36,-3.55 4.81,-5.34 10.27,-5.34 1.75,0 3.67,0.2 5.72,0.58 7.12,1.33 12.52,3.99 15.58,5.5 0.38,0.19 0.82,0.21 1.22,0.07 0.39,-0.15 0.72,-0.45 0.89,-0.84 l 7.01,-15.81 c 0.31,-0.69 0.07,-1.51 -0.57,-1.93 -4.94,-3.28 -17.27,-8.15 -30.97,-8.15 -1.98,0 -3.95,0.1 -5.87,0.3 -10.92,1.12 -21.86,4.03 -27.92,17.64 -3.78,8.47 -3.77,18.01 0.01,24.89 4.04,7.51 10.66,10.87 19.04,15.11 l 1.08,0.55 c 6.05,3.02 13.3,6.38 18.07,8.59 7.05,3.4 9.66,9.44 8.04,13.08 -2.61,5.87 -8.38,7.16 -18.36,4.33 -8.81,-2.39 -16.94,-9.14 -19.21,-11.15 -0.34,-0.3 -0.79,-0.44 -1.25,-0.38 -0.45,0.06 -0.85,0.32 -1.1,0.69 l -10.86,16.65 c -0.41,0.63 -0.32,1.46 0.22,1.98 5.63,5.43 10.22,8.59 18.17,12.5 5.35,2.63 13.18,4.21 20.95,4.21 8.12,0 27.95,-1.88 36.65,-19.26 5.55,-11.12 3.48,-22.84 -5.69,-32.22 z"
   fill="#40c0e7"
   id="path17415"
   style="fill:#cc9900;fill-opacity:1" /><path
   d="m 396.67903,280.4635 a 2.375,2.375 0 0 0 -1.94,-1.01 h -22.31 c -0.98,0 -1.86,0.6 -2.21,1.51 l -24.29,63.31 -24.29,-63.31 a 2.365,2.365 0 0 0 -2.21,-1.51 h -22.3 a 2.364,2.364 0 0 0 -2.22,3.18 l 36.95,99.96 c 0.01,0 0.01,0 0.01,0.01 0.06,0.18 0.16,0.35 0.27,0.51 0.02,0.02 0.04,0.04 0.05,0.06 0.04,0.06 0.1,0.11 0.14,0.16 0.1,0.11 0.2,0.21 0.32,0.31 0.06,0.05 0.12,0.09 0.19,0.13 0.13,0.08 0.26,0.14 0.4,0.2 0.07,0.02 0.13,0.05 0.19,0.07 0.21,0.06 0.43,0.1 0.66,0.1 h 23.71 c 0.23,0 0.45,-0.04 0.65,-0.1 0.07,-0.02 0.13,-0.05 0.2,-0.07 0.14,-0.06 0.27,-0.12 0.4,-0.2 0.07,-0.04 0.13,-0.08 0.19,-0.13 0.12,-0.09 0.22,-0.19 0.32,-0.31 0.05,-0.05 0.1,-0.1 0.14,-0.16 0.02,-0.02 0.04,-0.03 0.05,-0.06 0.11,-0.16 0.2,-0.33 0.27,-0.51 v -0.01 l 36.95,-99.96 c 0.25,-0.73 0.15,-1.54 -0.29,-2.17 z"
   fill="#40c0e7"
   id="path17424"
   style="fill:#cc9900;fill-opacity:1" /></svg>
