<?xml version="1.0" encoding="iso-8859-1"?>
<!-- Generator: Adobe Illustrator 19.0.0, SVG Export Plug-In . SVG Version: 6.00 Build 0)  -->
<svg version="1.1" id="Layer_1" xmlns="http://www.w3.org/2000/svg" xmlns:xlink="http://www.w3.org/1999/xlink" x="0px" y="0px"
	 viewBox="0 0 512 512" style="enable-background:new 0 0 512 512;" xml:space="preserve">
<g>
	<g>
		<path d="M407.27,442.182H127.998c-6.412,0-11.636-5.225-11.636-11.636V58.182c0-6.423-5.213-11.636-11.636-11.636
			s-11.636,5.213-11.636,11.636v372.364c0,19.247,15.663,34.909,34.909,34.909H407.27c6.435,0,11.636-5.213,11.636-11.636
			C418.907,447.395,413.705,442.182,407.27,442.182z"/>
	</g>
</g>
<g>
	<g>
		<path d="M360.725,488.727H81.452c-6.412,0-11.636-5.225-11.636-11.636V104.727c0-6.423-5.213-11.636-11.636-11.636
			s-11.636,5.213-11.636,11.636v372.364c0,19.247,15.663,34.909,34.909,34.909h279.273c6.435,0,11.636-5.213,11.636-11.636
			C372.361,493.94,367.16,488.727,360.725,488.727z"/>
	</g>
</g>
<g>
	<g>
		<path d="M453.816,104.739h-69.818c-6.423,0-11.636-5.225-11.636-11.636V58.182c0-6.423-5.201-11.636-11.636-11.636
			c-6.435,0-11.636,5.213-11.636,11.636v34.909c0,19.247,15.663,34.909,34.909,34.909h58.182v256
			c0,6.412-5.213,11.636-11.636,11.636h-256c-6.412,0-11.636-5.225-11.636-11.636V34.909c0-6.412,5.225-11.636,11.636-11.636
			h193.513l78.196,67.025c4.876,4.189,12.23,3.631,16.396-1.257c4.189-4.876,3.631-12.23-1.257-16.407L379.936,2.816
			C377.83,0.989,375.131,0,372.361,0H174.543c-19.247,0-34.909,15.663-34.909,34.909V384c0,19.247,15.663,34.909,34.909,34.909h256
			c19.247,0,34.909-15.663,34.909-34.909V116.364C465.452,109.94,460.251,104.739,453.816,104.739z"/>
	</g>
</g>
<g>
	<g>
		<path d="M302.543,162.909h-93.091c-6.423,0-11.636,5.213-11.636,11.636s5.213,11.636,11.636,11.636h93.091
			c6.435,0,11.636-5.213,11.636-11.636S308.978,162.909,302.543,162.909z"/>
	</g>
</g>
<g>
	<g>
		<path d="M360.725,209.455H279.27c-6.435,0-11.636,5.213-11.636,11.636c0,6.423,5.201,11.636,11.636,11.636h81.455
			c6.435,0,11.636-5.213,11.636-11.636C372.361,214.668,367.16,209.455,360.725,209.455z"/>
	</g>
</g>
<g>
	<g>
		<path d="M290.907,302.545h-81.455c-6.423,0-11.636,5.213-11.636,11.636s5.213,11.636,11.636,11.636h81.455
			c6.435,0,11.636-5.213,11.636-11.636S297.342,302.545,290.907,302.545z"/>
	</g>
</g>
<g>
	<g>
		<path d="M395.634,162.909h-46.545c-6.435,0-11.636,5.213-11.636,11.636s5.201,11.636,11.636,11.636h46.545
			c6.435,0,11.636-5.213,11.636-11.636S402.069,162.909,395.634,162.909z"/>
	</g>
</g>
<g>
	<g>
		<path d="M290.907,256h-81.455c-6.423,0-11.636,5.213-11.636,11.636s5.213,11.636,11.636,11.636h81.455
			c6.435,0,11.636-5.213,11.636-11.636S297.342,256,290.907,256z"/>
	</g>
</g>
<g>
	<g>
		<path d="M232.725,209.455h-23.273c-6.423,0-11.636,5.213-11.636,11.636c0,6.423,5.213,11.636,11.636,11.636h23.273
			c6.435,0,11.636-5.213,11.636-11.636C244.361,214.668,239.16,209.455,232.725,209.455z"/>
	</g>
</g>
<g>
	<g>
		<path d="M395.634,256h-58.182c-6.435,0-11.636,5.213-11.636,11.636s5.201,11.636,11.636,11.636h58.182
			c6.435,0,11.636-5.213,11.636-11.636S402.069,256,395.634,256z"/>
	</g>
</g>
<g>
</g>
<g>
</g>
<g>
</g>
<g>
</g>
<g>
</g>
<g>
</g>
<g>
</g>
<g>
</g>
<g>
</g>
<g>
</g>
<g>
</g>
<g>
</g>
<g>
</g>
<g>
</g>
<g>
</g>
</svg>
