<?xml version="1.0" ?><svg width="32px" height="32px" viewBox="0 0 32 32" data-name="Layer 1" id="Layer_1" xmlns="http://www.w3.org/2000/svg" xmlns:xlink="http://www.w3.org/1999/xlink"><defs><style>.cls-1{fill:url(#linear-gradient);}.cls-2{fill:url(#linear-gradient-2);}.cls-3{fill:#577590;}</style><linearGradient gradientUnits="userSpaceOnUse" id="linear-gradient" x1="9.81" x2="28.01" y1="9.81" y2="28.01"><stop offset="0" stop-color="#f9dcc4"/><stop offset="0.32" stop-color="#f8d9c0"/><stop offset="0.64" stop-color="#f4cfb3"/><stop offset="0.98" stop-color="#eebf9f"/><stop offset="1" stop-color="#edbe9d"/></linearGradient><linearGradient gradientUnits="userSpaceOnUse" id="linear-gradient-2" x1="6" x2="12" y1="5" y2="5"><stop offset="0" stop-color="#f9dcc4"/><stop offset="1" stop-color="#edbe9d"/></linearGradient></defs><path class="cls-1" d="M23.5,2h-12a.47.47,0,0,0-.35.15l-5,5A.47.47,0,0,0,6,7.5v20A2.5,2.5,0,0,0,8.5,30h15A2.5,2.5,0,0,0,26,27.5V4.5A2.5,2.5,0,0,0,23.5,2Z"/><path class="cls-2" d="M11.69,2a.47.47,0,0,0-.54.11l-5,5A.47.47,0,0,0,6,7.69.5.5,0,0,0,6.5,8h3A2.5,2.5,0,0,0,12,5.5v-3A.5.5,0,0,0,11.69,2Z"/><path class="cls-3" d="M21.5,11.4a1.2,1.2,0,0,1-.81-.3,2.12,2.12,0,0,0-1.39-.5,2.15,2.15,0,0,0-1.4.5,1.23,1.23,0,0,1-1.61,0,2.12,2.12,0,0,0-1.39-.5,2.15,2.15,0,0,0-1.4.5,1.17,1.17,0,0,1-.8.3,1.2,1.2,0,0,1-.81-.3,2.12,2.12,0,0,0-1.39-.5.5.5,0,0,0,0,1,1.15,1.15,0,0,1,.8.3,2.12,2.12,0,0,0,1.4.5,2.07,2.07,0,0,0,1.39-.5,1.23,1.23,0,0,1,1.61,0,2.2,2.2,0,0,0,2.79,0,1.18,1.18,0,0,1,.81-.3,1.15,1.15,0,0,1,.8.3,2.12,2.12,0,0,0,1.4.5.5.5,0,0,0,0-1Z"/><path class="cls-3" d="M21.5,16.4a1.2,1.2,0,0,1-.81-.3,2.12,2.12,0,0,0-1.39-.5,2.15,2.15,0,0,0-1.4.5,1.23,1.23,0,0,1-1.61,0,2.12,2.12,0,0,0-1.39-.5,2.15,2.15,0,0,0-1.4.5,1.17,1.17,0,0,1-.8.3,1.2,1.2,0,0,1-.81-.3,2.12,2.12,0,0,0-1.39-.5.5.5,0,0,0,0,1,1.15,1.15,0,0,1,.8.3,2.12,2.12,0,0,0,1.4.5,2.07,2.07,0,0,0,1.39-.5,1.23,1.23,0,0,1,1.61,0,2.2,2.2,0,0,0,2.79,0,1.18,1.18,0,0,1,.81-.3,1.15,1.15,0,0,1,.8.3,2.12,2.12,0,0,0,1.4.5.5.5,0,0,0,0-1Z"/><path class="cls-3" d="M21.5,21.4a1.2,1.2,0,0,1-.81-.3,2.12,2.12,0,0,0-1.39-.5,2.15,2.15,0,0,0-1.4.5,1.23,1.23,0,0,1-1.61,0,2.12,2.12,0,0,0-1.39-.5,2.15,2.15,0,0,0-1.4.5,1.17,1.17,0,0,1-.8.3,1.2,1.2,0,0,1-.81-.3,2.12,2.12,0,0,0-1.39-.5.5.5,0,0,0,0,1,1.15,1.15,0,0,1,.8.3,2.12,2.12,0,0,0,1.4.5,2.07,2.07,0,0,0,1.39-.5,1.23,1.23,0,0,1,1.61,0,2.2,2.2,0,0,0,2.79,0,1.18,1.18,0,0,1,.81-.3,1.15,1.15,0,0,1,.8.3,2.12,2.12,0,0,0,1.4.5.5.5,0,0,0,0-1Z"/></svg>