<?xml version="1.0" encoding="UTF-8" standalone="no"?>
<!-- Generator: Adobe Illustrator 19.0.0, SVG Export Plug-In . SVG Version: 6.00 Build 0)  -->

<svg
   version="1.1"
   id="Layer_1"
   x="0px"
   y="0px"
   viewBox="0 0 512 512"
   style="enable-background:new 0 0 512 512;"
   xml:space="preserve"
   sodipodi:docname="fy.svg"
   inkscape:version="1.2.1 (9c6d41e410, 2022-07-14)"
   xmlns:inkscape="http://www.inkscape.org/namespaces/inkscape"
   xmlns:sodipodi="http://sodipodi.sourceforge.net/DTD/sodipodi-0.dtd"
   xmlns="http://www.w3.org/2000/svg"
   xmlns:svg="http://www.w3.org/2000/svg"><defs
   id="defs362" /><sodipodi:namedview
   id="namedview360"
   pagecolor="#505050"
   bordercolor="#eeeeee"
   borderopacity="1"
   inkscape:showpageshadow="0"
   inkscape:pageopacity="0"
   inkscape:pagecheckerboard="0"
   inkscape:deskcolor="#505050"
   showgrid="false"
   inkscape:zoom="0.59662135"
   inkscape:cx="262.31043"
   inkscape:cy="176.82907"
   inkscape:window-width="1920"
   inkscape:window-height="1023"
   inkscape:window-x="1920"
   inkscape:window-y="29"
   inkscape:window-maximized="1"
   inkscape:current-layer="Layer_1" />
<path
   style="fill:#E0E0E2;"
   d="M442.166,512c12.853,0,23.273-10.42,23.273-23.273V179.02c-0.321,12.573-10.591,22.672-23.242,22.672  c-0.012,0-0.022,0-0.031,0h-23.273H287.015c-12.853,0-23.273-10.42-23.273-23.273V46.545V23.273c0-9.413,5.669-17.898,14.367-21.501  c2.991-1.238,6.136-1.801,9.249-1.753C287.243,0.016,287.13,0,287.015,0H69.803C56.95,0,46.53,10.42,46.53,23.273v465.455  C46.53,501.58,56.95,512,69.803,512H442.166z"
   id="path325" />
<path
   style="fill:#C6C5CA;"
   d="M263.742,23.273v23.273V178.42c0,12.853,10.42,23.273,23.273,23.273h131.879h23.273  c0.009,0,0.019,0,0.031,0c12.651,0,22.921-10.1,23.242-22.672c0.006-0.202,0.031-0.397,0.031-0.6c0-4.822-1.488-9.286-4-13.002  c-0.003-0.005-0.006-0.009-0.009-0.014c-0.396-0.586-0.821-1.153-1.269-1.699c-0.036-0.045-0.073-0.092-0.109-0.137  c-0.424-0.512-0.873-1.001-1.339-1.474c-0.073-0.073-0.144-0.147-0.219-0.22c-0.203-0.2-0.391-0.419-0.604-0.613L303.472,6.816  c-0.483-0.484-0.99-0.936-1.508-1.37c-0.155-0.13-0.315-0.253-0.473-0.379c-0.379-0.299-0.763-0.59-1.161-0.867  c-0.189-0.132-0.379-0.264-0.569-0.389c-0.416-0.272-0.839-0.526-1.272-0.773c-0.163-0.095-0.326-0.197-0.493-0.285  c-0.563-0.303-1.14-0.579-1.73-0.835c-0.233-0.101-0.472-0.188-0.706-0.281c-0.394-0.155-0.791-0.303-1.195-0.436  c-0.267-0.088-0.537-0.175-0.807-0.254c-0.453-0.132-0.912-0.248-1.376-0.354c-0.197-0.045-0.393-0.101-0.591-0.14  c-0.649-0.13-1.309-0.228-1.977-0.301c-0.2-0.023-0.402-0.036-0.602-0.053c-0.546-0.047-1.098-0.076-1.654-0.084  c-3.112-0.047-6.257,0.515-9.249,1.753C269.413,5.374,263.742,13.86,263.742,23.273z"
   id="path327" />
<g
   id="g329">
</g>
<g
   id="g331">
</g>
<g
   id="g333">
</g>
<g
   id="g335">
</g>
<g
   id="g337">
</g>
<g
   id="g339">
</g>
<g
   id="g341">
</g>
<g
   id="g343">
</g>
<g
   id="g345">
</g>
<g
   id="g347">
</g>
<g
   id="g349">
</g>
<g
   id="g351">
</g>
<g
   id="g353">
</g>
<g
   id="g355">
</g>
<g
   id="g357">
</g>
<path
   d="m 242.73055,286.02744 h -66.29 c -1.23,0 -2.24,1 -2.24,2.24 v 100.97 c 0,1.24 1.01,2.24 2.24,2.24 h 21.89 c 1.24,0 2.24,-1 2.24,-2.24 v -44 h 35.11 c 1.24,0 2.24,-1 2.24,-2.24 v -16.72 c 0,-1.24 -1,-2.24 -2.24,-2.24 h -35.11 v -16.8 h 42.16 c 1.24,0 2.24,-1 2.24,-2.24 v -16.73 c 0,-1.24 -1,-2.24 -2.24,-2.24 z"
   fill="#40c0e7"
   id="path12774"
   style="fill:#009999;fill-opacity:1" /><path
   d="m 355.61496,288.79221 a 2.36,2.36 0 0 0 -2.09,-1.25 h -22.3 c -0.77,0 -1.5,0.38 -1.94,1.02 l -24.56,35.28 -24.57,-35.29 a 2.346,2.346 0 0 0 -1.94,-1.02 h -22.3 c -0.87,0 -1.67,0.48 -2.08,1.25 -0.41,0.77 -0.36,1.71 0.12,2.43 l 36.58,54.56 v 44.58 c 0,1.29 1.05,2.33 2.34,2.33 h 23.71 c 1.29,0 2.34,-1.04 2.34,-2.33 v -44.57 l 36.57,-54.56 c 0.48,-0.72 0.53,-1.66 0.12,-2.43 z"
   fill="#40c0e7"
   id="path12783"
   style="fill:#009999;fill-opacity:1" /></svg>
